<svg width="41" height="41" viewBox="0 0 41 41" fill="none" xmlns="http://www.w3.org/2000/svg">
<rect width="40.479" height="40.479" rx="12" fill="#F5F5F5"/>
<path d="M18.8648 9.97117C17.1398 10.2157 15.6943 11.2638 14.9344 12.8229C14.5894 13.526 14.4715 14.0238 14.4453 14.8448C14.4104 15.8274 14.5283 16.4563 14.8951 17.2555C15.2445 18.0153 15.9345 18.832 16.6288 19.3036C19.1923 21.0592 22.7122 20.177 24.1228 17.4345C24.8259 16.072 24.887 14.4562 24.2931 13.05C23.4022 10.945 21.1182 9.65237 18.8648 9.97117Z" fill="url(#paint0_linear_5312_21762)"/>
<path d="M24.28 20.2534C22.7559 20.5416 21.4283 21.5373 20.7295 22.9173C20.2492 23.8781 20.1094 25.245 20.3889 26.3237C20.7514 27.7211 21.7471 28.9264 23.0528 29.5378C24.6774 30.2977 26.6295 30.1099 28.0575 29.0531C28.4418 28.7692 28.992 28.1928 29.2541 27.7954C30.6384 25.7079 30.1843 22.8387 28.2191 21.2578C27.7605 20.8866 26.9657 20.4892 26.3762 20.3364C25.8215 20.1923 24.8259 20.153 24.28 20.2534ZM26.0268 21.7339C26.315 21.8125 27.0094 22.1313 27.0094 22.1837C27.0094 22.2317 22.2798 26.9569 22.2362 26.9569C22.1794 26.9569 21.8737 26.2713 21.7864 25.9525C21.6597 25.507 21.6728 24.5899 21.8038 24.162C22.2143 22.8562 23.2057 21.9522 24.5245 21.6727C24.804 21.6159 25.7211 21.6509 26.0268 21.7339ZM28.2496 23.5593C28.5117 24.1095 28.599 24.5026 28.599 25.1009C28.5946 25.7428 28.4986 26.1359 28.2016 26.708C28.0357 27.0355 27.9221 27.184 27.5771 27.5246C27.2365 27.8696 27.088 27.9831 26.7605 28.1491C26.1884 28.4461 25.7953 28.5421 25.1534 28.5465C24.7341 28.5465 24.5595 28.529 24.2887 28.4504C23.9699 28.3587 23.4895 28.1578 23.341 28.053C23.2886 28.0137 23.721 27.5639 25.6556 25.6249C26.9657 24.3148 28.0488 23.2449 28.0662 23.2449C28.0837 23.2449 28.1667 23.389 28.2496 23.5593Z" fill="url(#paint1_linear_5312_21762)"/>
<path d="M18.3149 21.0215C15.2667 21.2486 12.6858 22.17 11.2403 23.5457C10.642 24.1134 10.3188 24.6112 10.1004 25.3012C10.0044 25.6069 10 25.6943 10 26.7424V27.5317C10 27.7452 10.0477 27.9559 10.1397 28.1486C10.3756 28.6508 10.7948 28.9652 11.3363 29.0569C11.6289 29.1006 20.8959 29.1224 20.8959 29.0744C20.8959 29.0613 20.7911 28.9215 20.66 28.76C20.0923 28.0481 19.7255 27.3057 19.494 26.3755C19.363 25.8558 19.3325 24.7597 19.4329 24.1614C19.6076 23.1002 20.0792 22.1002 20.7649 21.3184C20.8915 21.1787 20.9832 21.0521 20.9701 21.039C20.9308 20.9996 18.8171 20.9822 18.3149 21.0215Z" fill="url(#paint2_linear_5312_21762)"/>
<defs>
<linearGradient id="paint0_linear_5312_21762" x1="30.2552" y1="22.5258" x2="14.4786" y2="9.22024" gradientUnits="userSpaceOnUse">
<stop stop-color="#FBD604"/>
<stop offset="1" stop-color="#EF5322"/>
</linearGradient>
<linearGradient id="paint1_linear_5312_21762" x1="35.3672" y1="32.2056" x2="20.3265" y2="19.4771" gradientUnits="userSpaceOnUse">
<stop stop-color="#FBD604"/>
<stop offset="1" stop-color="#EF5322"/>
</linearGradient>
<linearGradient id="paint2_linear_5312_21762" x1="26.9144" y1="30.9246" x2="14.4239" y2="16.6196" gradientUnits="userSpaceOnUse">
<stop stop-color="#FBD604"/>
<stop offset="1" stop-color="#EF5322"/>
</linearGradient>
</defs>
</svg>
