<svg width="37" height="37" viewBox="0 0 37 37" fill="none" xmlns="http://www.w3.org/2000/svg">
<path d="M9.17634 0.505583C5.58489 1.74986 2.89837 4.12531 1.20162 7.54709C0.211855 9.52663 0.127018 9.92253 0.0421802 12.6373C-0.0709363 15.1825 0.0139011 15.8612 0.664321 17.9255C1.5127 20.6686 1.62581 23.5814 0.975392 25.4478C0.749159 26.0982 0.551205 26.7486 0.551205 26.89C0.551205 27.0314 1.31474 27.1445 2.24795 27.1445C3.9447 27.1445 5.24554 26.7203 6.29187 25.7871C6.74434 25.3912 6.97057 25.3912 8.6956 25.9568C11.3538 26.8052 13.1637 26.9749 15.4826 26.5789C21.0253 25.6457 25.4368 21.517 26.5397 16.1722C27.9537 9.44179 23.9663 2.54168 17.4904 0.533861C15.2281 -0.173117 11.1559 -0.173117 9.17634 0.505583ZM7.3382 12.1566C8.27141 13.0898 8.07346 14.3058 6.85745 14.9562C6.17875 15.2956 5.18898 14.9845 4.73652 14.3058C4.0861 13.3443 5.01931 11.591 6.20703 11.591C6.5181 11.591 7.02713 11.8455 7.3382 12.1566ZM14.408 12.1C15.1432 12.6939 15.2564 13.9947 14.6625 14.5603C13.9272 15.2673 13.1071 15.2956 12.3436 14.6734C11.4387 13.9665 11.3538 12.9484 12.1457 12.1566C12.8526 11.4496 13.5879 11.4496 14.408 12.1ZM21.8454 12.4959C22.3261 13.1464 22.3827 13.3726 22.0999 13.9947C21.5909 15.0693 20.5446 15.4652 19.6679 14.8714C18.5933 14.1927 18.4236 13.1181 19.2437 12.2697C20.0921 11.3648 21.0819 11.4779 21.8454 12.4959Z" fill="url(#paint0_linear_1_11116)"/>
<path d="M28.8851 12.9477C28.9133 17.642 27.4994 21.1203 24.3038 24.3159C21.278 27.3417 17.6583 28.8405 13.3315 28.8405H11.9981C11.5482 28.8405 11.2675 29.3281 11.4934 29.7172C12.2852 31.0746 15 33.5066 16.6402 34.355C19.9206 36.0234 23.7948 36.2497 27.556 35.0337L27.9349 34.9053C28.8027 34.6114 29.7574 34.7316 30.5253 35.2316C31.4867 35.882 32.1372 36.0517 33.6642 36.1366C35.8417 36.2779 35.87 36.2497 35.1913 34.355C34.5692 32.6299 34.654 29.7737 35.3893 27.5397C35.9266 25.9278 36.0397 24.938 36.0397 22.0535C36.0397 18.66 36.0114 18.4338 35.1348 16.5957C34.1733 14.5878 31.515 11.6468 29.7617 10.657C29.3593 10.4307 28.8626 10.7245 28.8673 11.1862L28.8851 12.9477Z" fill="url(#paint1_linear_1_11116)"/>
<defs>
<linearGradient id="paint0_linear_1_11116" x1="-2.06655e-08" y1="13.5723" x2="26.8242" y2="13.5723" gradientUnits="userSpaceOnUse">
<stop stop-color="#AA2493"/>
<stop offset="1" stop-color="#022179"/>
</linearGradient>
<linearGradient id="paint1_linear_1_11116" x1="10.9844" y1="23.1677" x2="36.0397" y2="23.1677" gradientUnits="userSpaceOnUse">
<stop stop-color="#AA2493"/>
<stop offset="1" stop-color="#022179"/>
</linearGradient>
</defs>
</svg>
