<svg width="9" height="10" viewBox="0 0 9 10" fill="none" xmlns="http://www.w3.org/2000/svg">
<path d="M1.97813 0.0698719C1.21875 0.206917 0.637502 0.657206 0.262501 1.38158C0.0656252 1.75356 0.0562502 1.92976 0.0281251 4.39656L0.00525664 6.52966C0.00180959 6.85119 0.0806835 7.16826 0.234376 7.4507C0.553127 8.01846 0.993753 8.28276 1.77188 8.38064C2.52188 8.47853 2.74688 8.6841 2.66251 9.20291C2.59688 9.61405 2.74688 9.90771 3.06564 9.98602C3.28126 10.0448 3.48751 9.93708 4.37814 9.3008C5.42814 8.55684 5.43752 8.54706 6.26252 8.45896C7.3594 8.3317 7.83753 8.14571 8.30628 7.64648C8.98128 6.95147 9.02816 6.69695 8.99066 4.06374C8.96253 1.91997 8.95316 1.74377 8.75628 1.3718C8.50315 0.872561 7.87503 0.295016 7.42502 0.148183C6.99377 0.00134945 2.67188 -0.0573835 1.97813 0.0698719ZM6.7594 3.00654C6.84377 3.15337 6.8344 3.24147 6.75002 3.34915C6.65627 3.46662 6.40315 3.4862 5.45627 3.46662C4.40627 3.43725 4.27501 3.41767 4.24689 3.26105C4.17189 2.8695 4.37814 2.80097 5.55002 2.80097C6.5719 2.80097 6.66565 2.82055 6.7594 3.00654ZM6.54377 4.91538C6.84377 5.00348 6.90002 5.26778 6.66565 5.46355C6.47815 5.62018 6.22502 5.63975 4.50939 5.63975C2.70001 5.63975 2.55001 5.62997 2.34376 5.44398C2.22487 5.34053 2.22487 5.15587 2.34376 5.05242C2.55001 4.86643 2.70001 4.85664 4.45314 4.85664C5.48439 4.85664 6.43127 4.88601 6.54377 4.91538Z" fill="#4B4B4B"/>
</svg>
