<svg width="15" height="15" viewBox="0 0 15 15" fill="none" xmlns="http://www.w3.org/2000/svg">
<path d="M7.06153 12.0273C5.59338 12.0273 4.12522 12.0273 2.65707 12.0273C2.262 12.0273 1.87228 12.0001 1.68542 11.5708C1.49857 11.1307 1.6961 10.7829 2.03244 10.5329C2.64105 10.0764 2.82791 9.49495 2.77452 8.72871C2.71046 7.76685 2.72647 6.78868 2.76918 5.82139C2.83859 4.28349 3.42585 3.001 4.71782 2.11522C4.9901 1.92502 5.28907 1.77286 5.60939 1.69678C5.90302 1.62614 5.97776 1.46854 5.96709 1.18053C5.95107 0.555588 6.29809 0.120848 6.86399 0.0175967C7.49397 -0.101957 8.11326 0.403429 8.13461 1.05554C8.13995 1.14792 8.14529 1.23487 8.13461 1.32725C8.11326 1.51202 8.19334 1.59897 8.36952 1.65331C9.98182 2.18587 10.868 3.35967 11.2311 5.00081C11.3272 5.44099 11.3379 5.88116 11.3379 6.32134C11.3379 7.38102 11.3432 8.4407 11.3325 9.50038C11.3325 9.69601 11.3806 9.84817 11.5247 9.97859C11.7489 10.1851 11.9518 10.4133 12.1654 10.6307C12.4216 10.8861 12.5444 11.1796 12.4056 11.5382C12.2615 11.9078 11.9571 12.0273 11.5888 12.0273C10.6972 12.0273 9.81098 12.0273 8.91941 12.0273C8.31079 12.0273 7.68616 12.0273 7.06153 12.0273Z" fill="url(#paint0_linear_1_78)"/>
<path d="M0.762668 5.8437C0.292859 5.84914 -0.0648361 5.46331 0.00990617 4.99596C0.282182 3.24613 1.06698 1.76801 2.35361 0.572473C2.6686 0.279023 3.13307 0.311628 3.40534 0.615947C3.67762 0.920265 3.66694 1.34957 3.34662 1.65932C2.56716 2.43099 1.98524 3.32221 1.67559 4.39276C1.59017 4.68077 1.54212 4.97422 1.46738 5.26224C1.37662 5.6209 1.10969 5.83827 0.762668 5.8437Z" fill="url(#paint1_linear_1_78)"/>
<path d="M11.2847 0.371335C11.4822 0.3659 11.6478 0.452849 11.7866 0.583271C13.0412 1.77337 13.8046 3.22975 14.0876 4.94698C14.157 5.36542 13.9007 5.74582 13.511 5.8219C13.0945 5.90341 12.7208 5.6643 12.6408 5.22413C12.3898 3.81122 11.7599 2.61568 10.7455 1.62665C10.5106 1.39841 10.4519 1.11583 10.58 0.806075C10.6975 0.534363 10.9697 0.3659 11.2847 0.371335Z" fill="url(#paint2_linear_1_78)"/>
<path d="M7.05602 12.6682C7.44575 12.6682 7.83548 12.6736 8.22521 12.6682C8.46011 12.6628 8.5135 12.7551 8.47079 12.9834C8.34266 13.6735 7.72337 14.2061 7.03467 14.1952C6.32996 14.1844 5.73202 13.6627 5.60923 12.9671C5.57186 12.7497 5.64126 12.6682 5.85481 12.6682C6.26055 12.6682 6.66096 12.6682 7.05602 12.6682Z" fill="url(#paint3_linear_1_78)"/>
<defs>
<linearGradient id="paint0_linear_1_78" x1="1.61328" y1="6.01366" x2="12.4635" y2="6.01366" gradientUnits="userSpaceOnUse">
<stop stop-color="#AA2493"/>
<stop offset="1" stop-color="#022179"/>
</linearGradient>
<linearGradient id="paint1_linear_1_78" x1="-2.77266e-09" y1="3.10646" x2="3.59897" y2="3.10646" gradientUnits="userSpaceOnUse">
<stop stop-color="#AA2493"/>
<stop offset="1" stop-color="#022179"/>
</linearGradient>
<linearGradient id="paint2_linear_1_78" x1="10.5137" y1="3.1044" x2="14.0989" y2="3.1044" gradientUnits="userSpaceOnUse">
<stop stop-color="#AA2493"/>
<stop offset="1" stop-color="#022179"/>
</linearGradient>
<linearGradient id="paint3_linear_1_78" x1="5.59961" y1="13.4317" x2="8.48421" y2="13.4317" gradientUnits="userSpaceOnUse">
<stop stop-color="#AA2493"/>
<stop offset="1" stop-color="#022179"/>
</linearGradient>
</defs>
</svg>
