<svg width="18" height="16" viewBox="0 0 18 16" fill="none" xmlns="http://www.w3.org/2000/svg">
<path d="M2.59596 0.0879898C1.35855 0.408158 0.402374 1.37299 0.086532 2.6104C0.0043266 2.94355 0 3.08632 0 7.61195C0 12.1376 0.0043266 12.2803 0.086532 12.6135C0.337475 13.6 0.990791 14.4177 1.88207 14.859C2.67384 15.2527 2.13734 15.2268 8.99933 15.2268C15.857 15.2268 15.3248 15.2527 16.1166 14.859C16.9992 14.422 17.6698 13.5827 17.9121 12.6135C17.977 12.3539 17.9987 12.1246 17.9987 11.6746V11.0819L16.0647 11.0646C13.8408 11.0429 13.7672 11.0343 13.0447 10.6838C12.3005 10.3204 11.8289 9.8488 11.4655 9.10462C11.2102 8.57678 11.1194 8.18738 11.1194 7.60329C11.1194 6.66442 11.4568 5.84669 12.1145 5.18905C12.426 4.87753 12.6813 4.70447 13.1226 4.49679C13.7802 4.19393 13.8884 4.18095 16.0647 4.15932L17.9987 4.14201V3.54927C17.9987 3.09498 17.977 2.86999 17.9121 2.6104C17.5963 1.36434 16.6314 0.399506 15.3854 0.0836639C15.0479 -0.00286865 14.9138 -0.00286865 8.98202 0.00145817C3.11515 0.00145817 2.9118 0.00578499 2.59596 0.0879898ZM3.80741 5.67796C3.88961 5.72987 3.99345 5.84237 4.04104 5.92457C4.12758 6.07168 4.1319 6.1409 4.1319 7.61195C4.1319 9.08299 4.12758 9.15222 4.04104 9.29932C3.76847 9.76227 3.15409 9.76227 2.88151 9.29932C2.79498 9.15222 2.79066 9.08299 2.79066 7.61195C2.79066 6.1409 2.79498 6.07168 2.88151 5.92457C3.01131 5.70392 3.21899 5.57844 3.46128 5.57844C3.59973 5.57844 3.71222 5.60873 3.80741 5.67796Z" fill="url(#paint0_linear_567_2391)"/>
<path d="M13.8809 5.61739C13.2536 5.82074 12.7171 6.37022 12.531 7.0019C12.4402 7.30909 12.4402 7.91482 12.531 8.222C12.7171 8.86234 13.2579 9.40749 13.8939 9.60652C14.1362 9.68007 14.3136 9.68872 16.0788 9.68872H17.9999V7.61195V5.53519L16.0659 5.53951C14.3093 5.53951 14.1059 5.54817 13.8809 5.61739ZM14.8761 7.0495C15.2914 7.30476 15.2914 7.91914 14.8761 8.17441C14.69 8.2869 14.3871 8.2869 14.2011 8.17441C13.6386 7.83261 13.8809 6.96296 14.5386 6.96296C14.6554 6.96296 14.7895 6.99758 14.8761 7.0495Z" fill="url(#paint1_linear_567_2391)"/>
<defs>
<linearGradient id="paint0_linear_567_2391" x1="27.7483" y1="18.6533" x2="4.05776" y2="-5.03043" gradientUnits="userSpaceOnUse">
<stop stop-color="#FBD604"/>
<stop offset="1" stop-color="#EF5322"/>
</linearGradient>
<linearGradient id="paint1_linear_567_2391" x1="20.9991" y1="10.6233" x2="14.5833" y2="3.38954" gradientUnits="userSpaceOnUse">
<stop stop-color="#FBD604"/>
<stop offset="1" stop-color="#EF5322"/>
</linearGradient>
</defs>
</svg>
