<svg width="18" height="18" viewBox="0 0 18 18" fill="none" xmlns="http://www.w3.org/2000/svg">
<path d="M4.47104 0.024229C3.54418 0.121128 2.69737 0.407612 2.00644 0.862614C1.66518 1.0859 1.1175 1.62938 0.894207 1.9622C0.485547 2.57309 0.215916 3.28087 0.0600351 4.15296C-0.0200117 4.61217 -0.0200117 13.3836 0.0600351 13.8428C0.359157 15.5407 1.12171 16.6824 2.40667 17.3649C2.81112 17.584 3.3251 17.7693 3.78011 17.862C4.48367 18.0053 4.99345 18.0179 9.33704 18.0011C13.9208 17.9842 13.7986 17.9884 14.6286 17.7651C15.0583 17.6472 15.8124 17.2764 16.1621 17.011C17.1142 16.2864 17.6872 15.2668 17.94 13.8428C18.02 13.3836 18.02 4.61217 17.94 4.15296C17.7377 3.00703 17.3459 2.16022 16.7098 1.48192C16.0273 0.75729 15.1931 0.327564 13.984 0.0789986C13.6975 0.0200157 13.1119 0.011591 9.23171 0.00316429C6.80082 -0.00526237 4.65641 0.00737762 4.47104 0.024229ZM6.94827 4.25407C7.25161 4.38046 7.4117 4.7175 7.3148 5.02505C7.23897 5.26098 5.1409 7.36747 4.8797 7.46858C4.58057 7.58233 4.42469 7.5065 3.91071 7.00094C3.43464 6.53751 3.35459 6.42376 3.35459 6.20047C3.35459 5.99825 3.40515 5.88029 3.56946 5.72019C3.82645 5.47163 4.17613 5.48848 4.47525 5.76232L4.66483 5.93505L5.49901 5.10931C5.95401 4.65431 6.37531 4.2625 6.43429 4.24143C6.58174 4.18245 6.79239 4.18666 6.94827 4.25407ZM14.3589 5.64857C14.5485 5.79181 14.658 6.02774 14.6328 6.24682C14.6075 6.48696 14.5022 6.63441 14.2662 6.75237L14.0809 6.84927H11.6289H9.18116L9 6.75237C8.75986 6.62598 8.60398 6.35635 8.63768 6.11621C8.65875 5.92242 8.76407 5.77075 8.95787 5.63593L9.10111 5.54325L11.671 5.55167C14.1693 5.56431 14.2494 5.56852 14.3589 5.64857ZM6.97776 10.5651C7.23054 10.6957 7.378 10.9738 7.33587 11.2392C7.30638 11.4077 7.21791 11.5088 6.16044 12.5705C4.94289 13.7965 4.8797 13.8428 4.55108 13.7796C4.42048 13.7586 4.2983 13.6659 3.93177 13.3036C3.67899 13.055 3.44728 12.8022 3.41358 12.739C3.23663 12.3978 3.4852 11.9133 3.88543 11.8375C4.07501 11.8037 4.35307 11.9049 4.51317 12.0734C4.58057 12.145 4.65641 12.1998 4.67747 12.1998C4.70275 12.1998 5.08613 11.8375 5.52428 11.3951C5.96665 10.9527 6.38373 10.5651 6.45114 10.5314C6.6323 10.4514 6.76712 10.4598 6.97776 10.5651ZM14.3336 11.9301C14.5232 12.0692 14.6159 12.225 14.6328 12.4399C14.6538 12.6674 14.5569 12.8528 14.3379 13.0171C14.2199 13.1056 14.1778 13.1056 11.7258 13.1182C10.0322 13.1266 9.18116 13.1182 9.07583 13.0845C8.89046 13.0297 8.6756 12.7896 8.63768 12.5874C8.60819 12.4315 8.7093 12.1239 8.82305 12.0186C9.04634 11.8164 8.97894 11.8206 11.6837 11.829C14.1693 11.8417 14.2199 11.8417 14.3336 11.9301Z" fill="white"/>
</svg>
