<svg width="20" height="20" viewBox="0 0 20 20" fill="none" xmlns="http://www.w3.org/2000/svg">
<path d="M1.72216 0.322845C-0.0939402 1.4225 -0.0106327 4.13833 1.87212 5.10469C2.5719 5.47125 3.85484 5.45459 4.5213 5.05471C5.40435 4.5382 5.82089 3.77178 5.82089 2.68878C5.82089 1.58912 5.43768 0.839351 4.62126 0.339507C3.88816 -0.110354 2.43861 -0.110354 1.72216 0.322845Z" fill="url(#paint0_linear_4709_22039)"/>
<path d="M8.9866 2.3726C8.00358 2.87245 7.48707 3.85548 7.48707 5.20506V6.17142H4.488C-0.0439291 6.17142 -0.077252 6.22141 0.022717 10.4868C0.089363 13.0193 0.139348 13.3525 0.555885 14.4189C0.889115 15.2686 1.03907 15.985 1.08905 17.0847C1.23901 19.7839 1.38896 20.0005 3.15508 20.0005C4.90454 20.0005 5.03783 19.7839 5.2211 16.9181C5.27109 16.035 5.45437 15.1686 5.75427 14.3356C6.18747 13.2026 6.23746 12.836 6.28744 10.3701L6.35409 7.6543L8.20351 7.70428C9.88632 7.75427 10.0696 7.78759 10.1196 8.07084C10.2196 8.58734 9.68639 8.83727 8.53674 8.83727H7.48707V10.2202C7.48707 12.4195 8.30348 13.5858 10.0196 13.8357L10.6361 13.919L10.0529 15.2186C9.40314 16.6182 9.4198 17.1014 10.0863 17.268C10.6694 17.4179 10.8527 17.2013 11.6524 15.4186L12.3689 13.8357H13.7685H15.168L15.6179 14.8854C16.451 16.8348 16.7175 17.2513 17.1174 17.3013C17.5839 17.368 17.9838 17.068 17.9838 16.6682C17.9838 16.5016 17.7339 15.8184 17.4173 15.1186L16.8508 13.869L17.5839 13.7857C18.467 13.6858 19.3334 13.0693 19.7166 12.2529C19.9665 11.753 19.9999 11.1532 19.9499 7.70428C19.8999 3.83882 19.8832 3.73885 19.5 3.18902C18.7336 2.12268 18.2337 2.00605 13.7351 2.00605C9.90299 2.00605 9.68639 2.02271 8.9866 2.3726ZM16.2677 4.93847C16.3177 5.08843 16.301 5.33835 16.201 5.4883C16.0677 5.7049 15.6512 5.77155 13.9184 5.80487C12.6521 5.82153 11.6858 5.77155 11.4858 5.67158C11.1693 5.50497 11.036 5.00512 11.2692 4.78852C11.3192 4.72188 12.4522 4.67189 13.7685 4.67189C15.8345 4.67189 16.1677 4.70521 16.2677 4.93847ZM16.151 7.58765C16.251 7.72094 16.3177 7.95421 16.2843 8.12082C16.2344 8.38741 16.0011 8.42073 13.8351 8.42073C11.7857 8.42073 11.4192 8.3874 11.2692 8.13748C11.1359 7.93754 11.1526 7.78759 11.3026 7.60431C11.6191 7.23776 15.8345 7.20444 16.151 7.58765ZM15.0514 10.2202C15.218 10.3368 15.318 10.5867 15.2846 10.77C15.2347 11.0532 15.0681 11.0866 13.2353 11.0866C11.4025 11.0866 11.2359 11.0532 11.1859 10.77C11.0693 10.2035 11.6025 10.0036 13.2353 10.0036C14.235 10.0036 14.8515 10.0869 15.0514 10.2202Z" fill="url(#paint1_linear_4709_22039)"/>
<defs>
<linearGradient id="paint0_linear_4709_22039" x1="8.7526" y1="6.57543" x2="0.506308" y2="-0.45694" gradientUnits="userSpaceOnUse">
<stop stop-color="#FBD604"/>
<stop offset="1" stop-color="#EF5322"/>
</linearGradient>
<linearGradient id="paint1_linear_4709_22039" x1="30.7869" y1="24.0494" x2="2.84707" y2="-2.17533" gradientUnits="userSpaceOnUse">
<stop stop-color="#FBD604"/>
<stop offset="1" stop-color="#EF5322"/>
</linearGradient>
</defs>
</svg>
